<svg xmlns="http://www.w3.org/2000/svg" xmlns:xlink="http://www.w3.org/1999/xlink" id="Layer_1" x="0px" y="0px" viewBox="0 0 210 90" style="enable-background:new 0 0 210 90;" xml:space="preserve"><style type="text/css">	.st0{fill:none;}	.st1{fill:#154990;}</style><rect x="22.3" y="12.1" class="st0" width="87.5" height="54.4"></rect><g>	<path class="st1" d="M59.8,24.7c0-0.9-0.1-1.8-0.1-2.7c0.2,0,0.4,0,0.5,0.1c0.2,0,0.3,0,0.5,0c0.2,0,0.3,0,0.5,0  c0.2,0,0.3-0.1,0.5-0.1c0,0.9-0.1,1.8-0.1,2.7c0,0.9-0.1,1.8-0.1,2.7V31c0,0.9,0,1.8,0.1,2.7c0,0.9,0.1,1.8,0.1,2.6  c-0.3,0-0.7,0-1,0c-0.4,0-0.7,0-1,0c0-0.9,0.1-1.7,0.1-2.6c0-0.9,0.1-1.8,0.1-2.7v-3.6C59.8,26.5,59.8,25.6,59.8,24.7"></path>	<path class="st1" d="M72.5,30.9C70.6,29,68.8,27,67,25.1c0,0.4,0,0.9,0,1.6c0,0.7,0,1.5,0,2.7c0,0.3,0,0.6,0,1.1c0,0.4,0,0.9,0,1.4  c0,0.5,0,1,0,1.4c0,0.5,0,0.9,0,1.4c0,0.4,0,0.8,0,1.1c0,0.3,0,0.5,0,0.6c-0.2,0-0.5,0-0.7,0c-0.3,0-0.5,0-0.8,0  c0-0.1,0.1-0.4,0.1-0.8c0-0.4,0.1-0.8,0.1-1.4c0-0.5,0.1-1.1,0.1-1.7c0-0.6,0.1-1.2,0.1-1.8c0-0.6,0-1.2,0-1.8c0-0.6,0-1.1,0-1.6  c0-1.4,0-2.5,0-3.5c0-1,0-1.7-0.1-2.2h0.3c0.9,0.9,1.8,1.9,2.8,3c1,1.1,2,2.1,2.9,3.1c1,1,1.9,2,2.8,2.9c0.9,0.9,1.6,1.7,2.3,2.3  v-2.8c0-1.5,0-2.9,0-4.3c0-1.4-0.1-2.7-0.1-3.9c0.3,0.1,0.5,0.1,0.7,0.1c0.2,0,0.4,0,0.7-0.1c0,0.3-0.1,0.8-0.1,1.4  c0,0.6-0.1,1.3-0.1,2c0,0.7-0.1,1.4-0.1,2.1c0,0.7,0,1.2,0,1.6v1.3c0,0.5,0,1,0,1.5c0,0.5,0,1,0,1.6c0,0.5,0,1,0,1.5  c0,0.5,0,0.9,0,1.2v0.7h-0.3C76.1,34.8,74.3,32.9,72.5,30.9"></path>	<path class="st1" d="M82.3,34.4c0.2,0.3,0.4,0.5,0.7,0.7c0.3,0.2,0.6,0.4,1,0.5c0.4,0.1,0.8,0.2,1.2,0.2c0.5,0,0.9-0.1,1.3-0.2  c0.4-0.2,0.7-0.4,1-0.7c0.3-0.3,0.5-0.6,0.6-1c0.1-0.4,0.2-0.8,0.2-1.2c0-0.6-0.2-1.1-0.5-1.5c-0.3-0.4-0.8-0.7-1.2-0.9  c-0.5-0.3-1-0.5-1.6-0.7c-0.6-0.2-1.1-0.5-1.6-0.8c-0.5-0.3-0.9-0.7-1.2-1.2c-0.3-0.5-0.5-1.1-0.5-2c0-0.6,0.1-1.1,0.3-1.6  c0.2-0.5,0.5-0.9,0.9-1.2c0.4-0.4,0.9-0.6,1.5-0.8c0.6-0.2,1.2-0.3,1.9-0.3c0.7,0,1.3,0.1,1.8,0.2c0.5,0.2,1,0.4,1.4,0.7  c-0.1,0.2-0.2,0.5-0.3,0.8c-0.1,0.3-0.2,0.6-0.3,1h-0.3c-0.1-0.2-0.2-0.4-0.3-0.6c-0.1-0.2-0.3-0.4-0.5-0.6  c-0.2-0.2-0.5-0.4-0.7-0.5c-0.3-0.1-0.6-0.2-1-0.2c-0.4,0-0.8,0.1-1.1,0.2c-0.3,0.1-0.6,0.3-0.9,0.5c-0.2,0.2-0.4,0.5-0.6,0.8  c-0.1,0.3-0.2,0.7-0.2,1.1c0,0.7,0.2,1.2,0.5,1.5c0.3,0.4,0.7,0.7,1.3,1c0.5,0.3,1,0.5,1.6,0.7c0.6,0.2,1.1,0.5,1.6,0.7  c0.5,0.3,0.9,0.7,1.2,1.1c0.3,0.5,0.5,1.1,0.5,1.8c0,0.6-0.1,1.2-0.4,1.8c-0.2,0.6-0.6,1.1-1,1.5c-0.4,0.4-1,0.8-1.6,1  c-0.6,0.2-1.4,0.3-2.2,0.3c-0.9,0-1.6-0.1-2.1-0.3c-0.5-0.2-1-0.5-1.4-0.8c0.1-0.3,0.2-0.6,0.3-0.9c0.1-0.3,0.1-0.6,0.1-1h0.3  C81.9,33.9,82.1,34.1,82.3,34.4"></path>	<path class="st1" d="M95.8,23c-0.4,0-0.8,0-1.2,0c-0.4,0-0.8,0-1.2,0c-0.4,0-0.8,0-1.2,0.1c-0.4,0-0.7,0.1-1,0.1  c0.1-0.3,0.1-0.5,0.1-0.7c0-0.1,0-0.4-0.1-0.6c0.9,0,1.9,0,2.7,0.1c0.9,0,1.8,0,2.7,0c0.9,0,1.9,0,2.7,0c0.9,0,1.8-0.1,2.7-0.1  c-0.1,0.3-0.1,0.5-0.1,0.7c0,0.2,0,0.4,0.1,0.6c-0.3,0-0.6-0.1-1-0.1c-0.4,0-0.8,0-1.2-0.1c-0.4,0-0.8,0-1.2,0c-0.4,0-0.8,0-1.2,0  c0,1.4-0.1,2.9-0.1,4.3V31c0,0.9,0,1.8,0.1,2.7c0,0.9,0.1,1.8,0.1,2.6c-0.3,0-0.7,0-1,0c-0.4,0-0.7,0-1,0c0-0.9,0.1-1.7,0.1-2.6  c0-0.9,0-1.8,0-2.7v-3.6C95.8,25.9,95.8,24.5,95.8,23"></path>	<path class="st1" d="M104.7,24.7c0-0.9-0.1-1.8-0.1-2.7c0.2,0,0.4,0,0.5,0.1c0.2,0,0.3,0,0.5,0c0.2,0,0.3,0,0.5,0  c0.2,0,0.4-0.1,0.5-0.1c0,0.9-0.1,1.8-0.1,2.7c0,0.9,0,1.8,0,2.7V31c0,0.9,0,1.8,0,2.7c0,0.9,0.1,1.8,0.1,2.6c-0.3,0-0.7,0-1,0  c-0.4,0-0.7,0-1,0c0-0.9,0.1-1.7,0.1-2.6c0-0.9,0.1-1.8,0.1-2.7v-3.6C104.7,26.5,104.7,25.6,104.7,24.7"></path>	<path class="st1" d="M113.5,23c-0.4,0-0.8,0-1.2,0c-0.4,0-0.8,0-1.2,0c-0.4,0-0.8,0-1.2,0.1c-0.4,0-0.7,0.1-1,0.1  c0.1-0.3,0.1-0.5,0.1-0.7c0-0.1,0-0.4-0.1-0.6c0.9,0,1.9,0,2.7,0.1c0.9,0,1.8,0,2.7,0c0.9,0,1.9,0,2.7,0c0.9,0,1.8-0.1,2.7-0.1  c-0.1,0.3-0.1,0.5-0.1,0.7c0,0.2,0,0.4,0.1,0.6c-0.3,0-0.6-0.1-1-0.1c-0.4,0-0.8,0-1.2-0.1c-0.4,0-0.8,0-1.2,0c-0.4,0-0.8,0-1.2,0  c0,1.4-0.1,2.9-0.1,4.3V31c0,0.9,0,1.8,0.1,2.7c0,0.9,0.1,1.8,0.1,2.6c-0.3,0-0.7,0-1,0c-0.4,0-0.7,0-1,0c0-0.9,0.1-1.7,0.1-2.6  c0-0.9,0-1.8,0-2.7v-3.6C113.6,25.9,113.5,24.5,113.5,23"></path>	<path class="st1" d="M133.5,24.2c0-1.1,0-1.8-0.1-2.2c0.2,0,0.3,0,0.4,0.1c0.1,0,0.3,0,0.4,0c0.2,0,0.4,0,0.6-0.1  c0,0.5-0.1,1.1-0.1,1.7c0,0.7-0.1,1.4-0.1,2.2c0,0.8-0.1,1.6-0.1,2.4c0,0.8-0.1,1.6-0.1,2.4c0,0.9-0.2,1.8-0.4,2.5  c-0.3,0.7-0.7,1.4-1.2,1.9c-0.5,0.5-1.1,0.9-1.9,1.2c-0.7,0.3-1.6,0.4-2.6,0.4c-2.1,0-3.7-0.5-4.6-1.4c-1-0.9-1.4-2.5-1.4-4.5  c0-0.7,0-1.2,0.1-1.7c0-0.5,0.1-1,0.1-1.6c0-1.2,0-2.2,0-3.1c0-0.9-0.1-1.7-0.1-2.3c0.2,0,0.4,0,0.6,0.1c0.2,0,0.4,0,0.6,0  c0.1,0,0.3,0,0.5,0c0.1,0,0.3-0.1,0.4-0.1c0,0.3-0.1,0.7-0.1,1.2c0,0.5-0.1,1.1-0.1,1.7c0,0.6,0,1.3-0.1,2c0,0.7,0,1.5,0,2.3  c0,0.5,0,1,0,1.5c0,0.5,0.1,1,0.1,1.5c0.1,0.5,0.2,0.9,0.4,1.4c0.2,0.4,0.5,0.8,0.8,1.2c0.4,0.3,0.8,0.6,1.3,0.8  c0.5,0.2,1.2,0.3,2,0.3c0.8,0,1.4-0.1,2-0.3c0.5-0.2,1-0.5,1.3-0.9c0.3-0.4,0.6-0.8,0.8-1.2c0.2-0.5,0.3-1,0.4-1.5  c0.1-0.5,0.1-1,0.1-1.6c0-0.5,0-1,0-1.4C133.5,26.8,133.5,25.2,133.5,24.2"></path>	<path class="st1" d="M141.8,23c-0.4,0-0.8,0-1.2,0c-0.4,0-0.8,0-1.2,0c-0.4,0-0.8,0-1.2,0.1c-0.4,0-0.7,0.1-1,0.1  c0.1-0.3,0.1-0.5,0.1-0.7c0-0.1,0-0.4-0.1-0.6c0.9,0,1.8,0,2.7,0.1c0.9,0,1.8,0,2.7,0c0.9,0,1.8,0,2.7,0c0.9,0,1.8-0.1,2.7-0.1  c-0.1,0.3-0.1,0.5-0.1,0.7c0,0.2,0,0.4,0.1,0.6c-0.3,0-0.6-0.1-1-0.1c-0.4,0-0.8,0-1.2-0.1c-0.4,0-0.8,0-1.2,0c-0.4,0-0.8,0-1.2,0  c0,1.4-0.1,2.9-0.1,4.3V31c0,0.9,0,1.8,0.1,2.7c0,0.9,0.1,1.8,0.1,2.6c-0.3,0-0.7,0-1,0c-0.4,0-0.7,0-1,0c0-0.9,0.1-1.7,0.1-2.6  c0-0.9,0.1-1.8,0.1-2.7v-3.6C141.9,25.9,141.9,24.5,141.8,23"></path>	<path class="st1" d="M149.4,26c0.4-0.9,0.9-1.7,1.6-2.4c0.7-0.6,1.5-1.1,2.5-1.5c1-0.3,2-0.5,3.2-0.5c1.2,0,2.2,0.2,3.2,0.5  c1,0.3,1.8,0.8,2.5,1.5c0.7,0.6,1.3,1.4,1.6,2.4c0.4,0.9,0.6,2,0.6,3.2c0,1.2-0.2,2.2-0.6,3.2c-0.4,0.9-0.9,1.7-1.6,2.4  c-0.7,0.6-1.5,1.1-2.5,1.4c-1,0.3-2,0.5-3.2,0.5c-1.2,0-2.2-0.2-3.2-0.5c-1-0.3-1.8-0.8-2.5-1.4c-0.7-0.6-1.2-1.4-1.6-2.4  c-0.4-0.9-0.6-2-0.6-3.2C148.8,28,149,26.9,149.4,26 M162.2,26.2c-0.3-0.9-0.7-1.5-1.2-2.1c-0.5-0.6-1.1-1-1.9-1.2  c-0.7-0.3-1.5-0.4-2.3-0.4c-0.8,0-1.6,0.1-2.3,0.4c-0.7,0.3-1.3,0.7-1.9,1.2c-0.5,0.6-1,1.2-1.3,2.1c-0.3,0.8-0.4,1.8-0.4,3  c0,1.2,0.1,2.2,0.4,3c0.3,0.8,0.7,1.5,1.3,2.1c0.5,0.5,1.1,1,1.9,1.2c0.7,0.3,1.5,0.4,2.3,0.4c0.8,0,1.6-0.1,2.3-0.4  c0.7-0.3,1.3-0.7,1.9-1.2c0.5-0.6,0.9-1.3,1.2-2.1c0.3-0.8,0.4-1.9,0.4-3C162.6,28,162.5,27,162.2,26.2"></path>	<path class="st1" d="M59.7,43.8c0-0.9-0.1-1.8-0.1-2.7c0.5,0,1.1,0.1,1.6,0.1c0.5,0,1.1,0,1.6,0c0.5,0,1.1,0,1.6-0.1  c0.5,0,1.1-0.1,1.6-0.1c1.3,0,2.3,0.2,3.2,0.5c0.9,0.3,1.6,0.8,2.2,1.4c0.6,0.6,1,1.3,1.2,2.2c0.3,0.9,0.4,1.8,0.4,2.9  c0,1.4-0.2,2.6-0.7,3.5c-0.5,1-1.1,1.7-1.9,2.3c-0.8,0.6-1.6,1-2.5,1.2c-0.9,0.3-1.8,0.4-2.6,0.4c-0.5,0-1,0-1.4,0  c-0.5,0-0.9,0-1.4,0h-1.4c-0.5,0-0.9,0-1.4,0c0-0.9,0.1-1.7,0.1-2.6c0-0.9,0.1-1.8,0.1-2.7v-3.6C59.8,45.6,59.8,44.7,59.7,43.8   M61.7,54.5c0.3,0.1,0.7,0.1,1.2,0.2c0.5,0,1,0.1,1.6,0.1c0.8,0,1.6-0.1,2.3-0.3c0.8-0.2,1.5-0.5,2.1-1c0.6-0.5,1.1-1.2,1.5-2.1  c0.4-0.9,0.6-2,0.6-3.4c0-1.2-0.2-2.2-0.5-3c-0.3-0.8-0.7-1.4-1.3-1.9c-0.5-0.5-1.2-0.8-1.9-0.9c-0.7-0.2-1.5-0.3-2.4-0.3  c-0.6,0-1.2,0-1.8,0.1c-0.6,0-1,0.1-1.5,0.1c0,0.7-0.1,1.4-0.1,2.1c0,0.7,0,1.5,0,2.2v3.6C61.5,51.6,61.6,53.1,61.7,54.5"></path>	<path class="st1" d="M76.3,43.7c0-0.9-0.1-1.8-0.1-2.7c0.6,0,1.3,0.1,1.9,0.1c0.6,0,1.3,0,1.9,0c0.6,0,1.3,0,1.9,0  c0.6,0,1.3,0,1.9-0.1c0,0.2-0.1,0.4-0.1,0.6c0,0.2,0,0.4,0.1,0.6c-0.5,0-0.9-0.1-1.2-0.1c-0.4,0-0.8,0-1.2-0.1  c-0.4,0-0.9-0.1-1.4-0.1c-0.5,0-1.1,0-1.8,0c0,0.4,0,0.9-0.1,1.3c0,0.4,0,0.9,0,1.4c0,0.5,0,1.1,0,1.6c0,0.5,0,0.9,0,1.2  c0.6,0,1.2,0,1.7,0c0.5,0,1,0,1.4-0.1c0.4,0,0.8,0,1.1-0.1c0.3,0,0.7,0,1-0.1c0,0.2-0.1,0.4-0.1,0.7c0,0.2,0,0.4,0.1,0.6  c-0.4,0-0.8-0.1-1.3-0.1c-0.5,0-1,0-1.5-0.1c-0.5,0-1,0-1.4,0c-0.4,0-0.8,0-1,0c0,0.1,0,0.3,0,0.4c0,0.1,0,0.3,0,0.5v0.8v1.3  c0,0.8,0,1.5,0,2c0,0.5,0,0.9,0,1.2h1.5c0.5,0,1.1,0,1.6,0c0.5,0,1,0,1.5-0.1c0.5,0,0.9-0.1,1.2-0.2c0,0.1,0,0.2,0,0.3  c0,0.1,0,0.2,0,0.3c0,0.2,0,0.4,0.1,0.5c-0.6,0-1.3,0-1.9,0H80h-1.9c-0.6,0-1.3,0-1.9,0c0-0.9,0.1-1.8,0.1-2.7c0-0.9,0-1.8,0-2.7  v-3.6C76.4,45.6,76.3,44.6,76.3,43.7"></path>	<path class="st1" d="M91.3,46.6c1,1.9,2,3.8,3.1,5.8c0.1-0.3,0.3-0.7,0.6-1.1c0.3-0.5,0.6-1.1,0.9-1.7c0.4-0.6,0.7-1.3,1.1-2.1  c0.4-0.7,0.8-1.5,1.2-2.3c0.4-0.8,0.8-1.5,1.3-2.3c0.4-0.7,0.8-1.4,1.1-2.1h0.3c0.1,1.3,0.3,2.6,0.4,3.9c0.1,1.3,0.3,2.5,0.4,3.7  c0.1,1.2,0.3,2.4,0.4,3.6c0.1,1.2,0.3,2.4,0.5,3.5c-0.2,0-0.3,0-0.5,0h-0.5h-0.5c-0.2,0-0.3,0-0.5,0c-0.1-1.9-0.3-3.7-0.5-5.4  c-0.2-1.8-0.3-3.5-0.6-5.4h0c-1,1.8-1.9,3.5-2.9,5.3c-0.9,1.7-1.8,3.6-2.7,5.5h-0.2c-0.9-1.8-1.7-3.5-2.7-5.3  c-0.9-1.8-1.9-3.6-2.8-5.4h0c-0.1,0.9-0.2,1.8-0.3,2.8c-0.1,1-0.2,2-0.3,3c-0.1,1-0.2,1.9-0.2,2.8c-0.1,0.9-0.1,1.6-0.1,2.1  c-0.2,0-0.5,0-0.7,0c-0.3,0-0.5,0-0.7,0c0.2-1.1,0.4-2.3,0.6-3.6c0.2-1.3,0.4-2.5,0.6-3.8c0.2-1.3,0.4-2.5,0.5-3.8  c0.2-1.2,0.3-2.4,0.4-3.5h0.4C89.3,42.8,90.3,44.7,91.3,46.6"></path>	<path class="st1" d="M105.3,45.1c0.4-0.9,0.9-1.7,1.6-2.4c0.7-0.6,1.5-1.1,2.5-1.5c1-0.3,2.1-0.5,3.2-0.5c1.2,0,2.2,0.2,3.2,0.5  c1,0.3,1.8,0.8,2.5,1.5c0.7,0.6,1.2,1.4,1.6,2.4c0.4,0.9,0.6,2,0.6,3.2c0,1.2-0.2,2.2-0.6,3.2c-0.4,0.9-0.9,1.7-1.6,2.4  c-0.7,0.7-1.5,1.1-2.5,1.4c-1,0.3-2,0.5-3.2,0.5c-1.2,0-2.2-0.2-3.2-0.5c-1-0.3-1.8-0.8-2.5-1.4c-0.7-0.6-1.2-1.4-1.6-2.4  c-0.4-0.9-0.6-2-0.6-3.2C104.7,47.1,104.9,46,105.3,45.1 M118.1,45.3c-0.3-0.9-0.7-1.5-1.2-2.1c-0.5-0.6-1.2-1-1.9-1.2  c-0.7-0.3-1.5-0.4-2.3-0.4c-0.8,0-1.6,0.1-2.3,0.4c-0.7,0.3-1.3,0.7-1.9,1.2c-0.5,0.5-0.9,1.2-1.2,2.1c-0.3,0.8-0.4,1.8-0.4,3  c0,1.2,0.2,2.2,0.4,3c0.3,0.8,0.7,1.5,1.2,2.1c0.5,0.6,1.2,1,1.9,1.2c0.7,0.3,1.5,0.4,2.3,0.4c0.8,0,1.6-0.1,2.3-0.4  c0.7-0.3,1.3-0.7,1.9-1.2c0.5-0.5,1-1.2,1.2-2.1c0.3-0.9,0.4-1.9,0.4-3C118.5,47.1,118.4,46.1,118.1,45.3"></path>	<path class="st1" d="M133.9,55c-0.3,0.1-0.6,0.2-1,0.4c-0.4,0.1-0.8,0.2-1.3,0.3c-0.5,0.1-1,0.1-1.5,0.1c-1.1,0-2.2-0.2-3.1-0.5  c-0.9-0.3-1.8-0.8-2.5-1.4c-0.7-0.6-1.2-1.4-1.6-2.4c-0.4-0.9-0.6-2-0.6-3.2c0-1.2,0.2-2.2,0.6-3.2c0.4-0.9,0.9-1.7,1.6-2.4  c0.7-0.6,1.5-1.1,2.5-1.5c1-0.3,2.1-0.5,3.2-0.5c0.9,0,1.8,0.1,2.6,0.3c0.8,0.2,1.5,0.4,2.1,0.7c-0.1,0.2-0.2,0.5-0.3,0.8  c-0.1,0.3-0.1,0.6-0.2,0.8l-0.1,0c-0.1-0.2-0.3-0.4-0.6-0.6c-0.3-0.2-0.6-0.4-0.9-0.6c-0.3-0.2-0.7-0.4-1.1-0.5  c-0.4-0.1-0.9-0.2-1.4-0.2c-0.8,0-1.6,0.1-2.3,0.4c-0.7,0.3-1.3,0.7-1.9,1.2c-0.5,0.5-1,1.2-1.3,2.1c-0.3,0.8-0.4,1.8-0.4,3  c0,1.2,0.2,2.2,0.4,3c0.3,0.8,0.7,1.5,1.3,2.1c0.5,0.6,1.2,1,1.9,1.2c0.7,0.3,1.5,0.4,2.3,0.4c0.5,0,1-0.1,1.4-0.2  c0.4-0.1,0.8-0.3,1.2-0.5c0.4-0.2,0.7-0.4,1-0.6c0.3-0.2,0.5-0.4,0.7-0.5l0.1,0.1l-0.2,1.2C134.4,54.7,134.2,54.8,133.9,55"></path>	<path class="st1" d="M137.7,43.8c0-0.9-0.1-1.8-0.1-2.7c0.4,0,0.8,0.1,1.2,0.1c0.4,0,0.8,0,1.2,0c0.4,0,0.8,0,1.2-0.1  c0.4,0,0.8-0.1,1.2-0.1c0.6,0,1.2,0.1,1.7,0.2c0.5,0.1,1,0.3,1.4,0.6c0.4,0.3,0.7,0.6,0.9,1c0.2,0.4,0.4,0.9,0.4,1.6  c0,0.7-0.2,1.2-0.5,1.7c-0.3,0.5-0.7,0.9-1.1,1.2c-0.4,0.3-0.9,0.6-1.4,0.7c-0.5,0.2-1,0.3-1.4,0.3c0.2,0.2,0.4,0.5,0.7,0.9  c0.3,0.4,0.6,0.8,1,1.2c0.4,0.5,0.8,0.9,1.1,1.4c0.4,0.5,0.8,1,1.1,1.4c0.4,0.5,0.7,0.9,1,1.3c0.3,0.4,0.6,0.7,0.8,0.9  c-0.2,0-0.4-0.1-0.6-0.1H147h-0.6c-0.2,0-0.4,0-0.6,0.1c-0.2-0.3-0.5-0.7-1-1.3c-0.4-0.6-0.9-1.2-1.4-1.9c-0.5-0.7-1.1-1.3-1.6-2  c-0.5-0.7-1-1.2-1.5-1.7h-0.8v1.5c0,0.9,0,1.8,0.1,2.7c0,0.9,0.1,1.8,0.1,2.6c-0.3,0-0.7-0.1-1-0.1c-0.4,0-0.7,0-1,0.1  c0-0.9,0.1-1.7,0.1-2.6c0-0.9,0-1.8,0-2.7v-3.6C137.7,45.6,137.7,44.7,137.7,43.8 M140.1,47.8c0.2,0,0.5,0,0.8,0  c0.4,0,0.9,0,1.4-0.1c0.5-0.1,0.9-0.3,1.3-0.5c0.4-0.2,0.7-0.6,1-1c0.3-0.4,0.4-0.9,0.4-1.6c0-0.5-0.1-1-0.3-1.3  c-0.2-0.4-0.5-0.6-0.8-0.9c-0.3-0.2-0.7-0.3-1.1-0.4c-0.4-0.1-0.8-0.1-1.1-0.1c-0.5,0-0.9,0-1.2,0c-0.3,0-0.6,0-0.8,0.1  c0,0.8-0.1,1.5-0.1,2.3c0,0.7,0,1.5,0,2.3v1.2C139.7,47.7,139.9,47.8,140.1,47.8"></path>	<path class="st1" d="M162.5,55.5c-0.2,0-0.4,0-0.6,0h-0.6h-0.6c-0.2,0-0.4,0-0.6,0c-0.1-0.3-0.2-0.7-0.4-1.2  c-0.2-0.5-0.4-0.9-0.6-1.4c-0.2-0.5-0.4-1-0.6-1.5c-0.2-0.5-0.4-1-0.6-1.5c-0.4,0-0.9,0-1.4,0c-0.5,0-0.9,0-1.4,0  c-0.4,0-0.9,0-1.3,0c-0.4,0-0.9,0-1.3,0c-0.5,1.1-0.9,2.1-1.2,3.1c-0.4,1-0.6,1.8-0.8,2.4c-0.2,0-0.5,0-0.8,0c-0.3,0-0.5,0-0.8,0  c1.1-2.4,2.3-4.9,3.4-7.3c1.1-2.4,2.2-4.9,3.3-7.4h0.4c0.3,0.8,0.7,1.7,1.1,2.6c0.4,1,0.8,1.9,1.2,2.9c0.4,1,0.8,1.9,1.2,2.9  c0.4,0.9,0.8,1.8,1.2,2.7c0.4,0.8,0.7,1.5,1,2.2C162,54.6,162.3,55.1,162.5,55.5 M153,48.9c0.4,0,0.8,0,1.1,0c0.4,0,0.8,0,1.1,0  c0.4,0,0.8,0,1.2,0c0.4,0,0.8,0,1.2,0l-2.4-5.3L153,48.9z"></path>	<path class="st1" d="M174.6,55c-0.3,0.1-0.6,0.2-1,0.4c-0.4,0.1-0.8,0.2-1.3,0.3c-0.5,0.1-1,0.1-1.5,0.1c-1.1,0-2.2-0.2-3.1-0.5  c-1-0.3-1.8-0.8-2.5-1.4c-0.7-0.6-1.2-1.4-1.6-2.4c-0.4-0.9-0.6-2-0.6-3.2c0-1.2,0.2-2.2,0.6-3.2c0.4-0.9,0.9-1.7,1.6-2.4  c0.7-0.6,1.5-1.1,2.5-1.5c1-0.3,2.1-0.5,3.2-0.5c0.9,0,1.8,0.1,2.6,0.3c0.8,0.2,1.5,0.4,2.1,0.7c-0.1,0.2-0.2,0.5-0.3,0.8  c-0.1,0.3-0.1,0.6-0.2,0.8l-0.1,0c-0.1-0.2-0.3-0.4-0.6-0.6c-0.3-0.2-0.6-0.4-0.9-0.6c-0.3-0.2-0.7-0.4-1.2-0.5  c-0.4-0.1-0.9-0.2-1.4-0.2c-0.8,0-1.6,0.1-2.3,0.4c-0.7,0.3-1.3,0.7-1.9,1.2c-0.5,0.5-0.9,1.2-1.2,2.1c-0.3,0.8-0.5,1.8-0.5,3  c0,1.2,0.1,2.2,0.5,3c0.3,0.8,0.7,1.5,1.2,2.1c0.5,0.6,1.2,1,1.9,1.2c0.7,0.3,1.5,0.4,2.3,0.4c0.5,0,1-0.1,1.4-0.2  c0.4-0.1,0.8-0.3,1.2-0.5c0.4-0.2,0.7-0.4,1-0.6c0.3-0.2,0.5-0.4,0.7-0.5l0.1,0.1l-0.2,1.2C175.1,54.7,174.9,54.8,174.6,55"></path>	<path class="st1" d="M178.4,43.8c0-0.9-0.1-1.8-0.1-2.7c0.2,0,0.4,0.1,0.5,0.1c0.2,0,0.3,0,0.5,0c0.2,0,0.3,0,0.5,0  c0.2,0,0.3,0,0.5-0.1c0,0.9-0.1,1.8-0.1,2.7c0,0.9-0.1,1.8-0.1,2.7v3.6c0,0.9,0,1.8,0.1,2.7c0,0.9,0.1,1.8,0.1,2.6  c-0.3,0-0.7,0-1,0c-0.4,0-0.7,0-1,0c0-0.9,0.1-1.7,0.1-2.6c0-0.9,0.1-1.8,0.1-2.7v-3.6C178.4,45.6,178.4,44.7,178.4,43.8"></path>	<path class="st1" d="M196.1,55.5c-0.2,0-0.4,0-0.6,0h-0.6h-0.6c-0.2,0-0.4,0-0.6,0c-0.1-0.3-0.2-0.7-0.4-1.2  c-0.2-0.5-0.4-0.9-0.6-1.4c-0.2-0.5-0.4-1-0.6-1.5c-0.2-0.5-0.4-1-0.6-1.5c-0.5,0-0.9,0-1.4,0c-0.5,0-0.9,0-1.4,0  c-0.4,0-0.9,0-1.3,0c-0.4,0-0.9,0-1.3,0c-0.5,1.1-0.9,2.1-1.2,3.1c-0.4,1-0.6,1.8-0.8,2.4c-0.2,0-0.5,0-0.8,0c-0.3,0-0.5,0-0.8,0  c1.2-2.4,2.3-4.9,3.4-7.3c1.1-2.4,2.2-4.9,3.3-7.4h0.4c0.3,0.8,0.7,1.7,1.1,2.6c0.4,1,0.8,1.9,1.2,2.9c0.4,1,0.8,1.9,1.2,2.9  c0.4,0.9,0.8,1.8,1.2,2.7c0.4,0.8,0.7,1.5,1,2.2C195.6,54.6,195.9,55.1,196.1,55.5 M186.6,48.9c0.4,0,0.8,0,1.1,0  c0.4,0,0.8,0,1.1,0c0.4,0,0.8,0,1.2,0c0.4,0,0.8,0,1.2,0l-2.4-5.3L186.6,48.9z"></path>	<path class="st1" d="M27.3,53.9c-5.5-4.9-5-10.5-2-14.4c3.3-4.3,10.8-6.9,14.6-10c5.6-4.5,3.4-10.5,3.4-10.5  c2.5,2.7,2.4,9.1-2.9,12.6c-5.4,3.6-11.8,5-15.1,10.9c-4,7.3,4.9,13.2,4.9,13.2s-2.3-4.3-1.4-9.1c0.9-5.2,6.4-7.6,12.5-9.8  c7.3-2.6,10.3-9.1,6.5-16.4c-4-7.9-15.6-6.9-15.6-6.9s9.6,3.3,7.9,8.9c-1.6,5.1-9.8,7.3-14.1,10.8c-4.6,3.7-7.5,8.1-5.2,13.6  C22.9,52,27.3,53.9,27.3,53.9"></path>	<path class="st1" d="M18.3,37.7c0,0-4.9,11.9,10.5,17.6c0,0-8.1-0.7-11.3-5.8C14.3,44.5,17.9,38.5,18.3,37.7"></path>	<path class="st1" d="M31.2,55.6c-2-4.1-1.7-10,2.3-12.8c4.8-3.4,10.2-3.3,13.7-6.4c5.9-5.1,3.8-11.1,3.8-11.1s3.7,4,1.5,9.8  c-2.4,6.3-8.9,7.7-14.1,9C28.9,46.4,31.2,55.6,31.2,55.6"></path>	<path class="st1" d="M35.4,48.8c2.9-3,6.2-3.8,6.2-3.8s-10.9,0.4-9.4,10.7C32.7,51.9,33.8,50.5,35.4,48.8"></path>	<rect x="15.5" y="60.5" class="st1" width="181.5" height="0.3"></rect>	<path class="st1" d="M172.7,35c-0.1,0.1-0.2,0.3-0.3,0.5c-0.1,0.2-0.3,0.3-0.5,0.4c-0.2,0.1-0.4,0.3-0.6,0.3  c-0.2,0.1-0.5,0.1-0.9,0.1c-0.3,0-0.7-0.1-1-0.2c-0.3-0.1-0.6-0.3-0.9-0.6c-0.2-0.3-0.4-0.6-0.6-1c-0.2-0.4-0.2-0.9-0.2-1.5  c0-0.6,0.1-1,0.3-1.4c0.2-0.4,0.4-0.7,0.7-1c0.3-0.3,0.6-0.5,0.9-0.6c0.3-0.1,0.7-0.2,1-0.2c1,0,1.7,0.4,2,1.3h0v-1.3  c0-0.3,0-0.7,0-1c0-0.3,0-0.7,0-1c0-0.3,0-0.6,0-0.9c0-0.3,0-0.5,0-0.7c0.1,0,0.2,0,0.3,0.1c0.1,0,0.2,0,0.3,0c0.1,0,0.2,0,0.3,0  c0.1,0,0.2,0,0.3-0.1c0,0.3,0,0.7-0.1,1.2c0,0.5,0,1.1,0,1.7c0,0.6,0,1.3,0,2c0,0.7,0,1.3,0,1.8c0,0.6,0,1.1,0,1.6c0,0.5,0,1,0,1.5  c-0.2,0-0.3,0-0.5,0c-0.2,0-0.3,0-0.5,0L172.7,35L172.7,35z M169.1,34.5c0.1,0.3,0.2,0.6,0.4,0.8c0.2,0.2,0.4,0.3,0.6,0.4  c0.2,0.1,0.4,0.1,0.6,0.1c0.4,0,0.6-0.1,0.9-0.3c0.2-0.2,0.5-0.4,0.6-0.7c0.2-0.3,0.3-0.6,0.4-0.9c0.1-0.3,0.1-0.7,0.1-1  c0-0.8-0.2-1.5-0.5-1.9c-0.3-0.4-0.8-0.7-1.5-0.7c-0.3,0-0.6,0.1-0.8,0.2c-0.2,0.1-0.4,0.3-0.6,0.6c-0.2,0.3-0.3,0.5-0.3,0.9  c-0.1,0.3-0.1,0.7-0.1,1.1C168.9,33.8,169,34.2,169.1,34.5"></path>	<path class="st1" d="M175.8,30.8c0.5-0.6,1.3-0.9,2.3-0.9c0.5,0,0.9,0.1,1.2,0.2c0.3,0.1,0.6,0.3,0.9,0.6c0.2,0.2,0.4,0.5,0.5,0.8  c0.1,0.3,0.2,0.7,0.2,1c0,0.1,0,0.2,0,0.3c0,0.1,0,0.2,0,0.3c-0.5,0-1,0-1.4,0c-0.5,0-0.9,0-1.4,0c-0.3,0-0.6,0-0.9,0  c-0.3,0-0.6,0-0.9,0c0,0,0,0.1,0,0.2v0.2c0,0.3,0.1,0.7,0.2,1c0.1,0.3,0.3,0.5,0.4,0.8c0.2,0.2,0.4,0.4,0.7,0.5  c0.3,0.1,0.6,0.2,1,0.2c0.2,0,0.4,0,0.5-0.1c0.2,0,0.4-0.1,0.5-0.2c0.2-0.1,0.3-0.2,0.5-0.3c0.2-0.1,0.3-0.2,0.4-0.4l0.1,0  l-0.1,0.6c-0.3,0.2-0.6,0.4-1,0.5c-0.4,0.2-0.8,0.2-1.2,0.2c-0.5,0-0.9-0.1-1.3-0.2c-0.4-0.1-0.7-0.4-1-0.6c-0.3-0.3-0.5-0.6-0.7-1  c-0.2-0.4-0.2-0.8-0.2-1.2C175,32.2,175.3,31.4,175.8,30.8 M177.3,30.5c-0.2,0.1-0.4,0.3-0.6,0.5c-0.1,0.2-0.3,0.5-0.3,0.7  c-0.1,0.3-0.1,0.5-0.1,0.8c0.3,0,0.6,0,0.9,0c0.3,0,0.6,0,0.9,0c0.3,0,0.6,0,0.9,0c0.3,0,0.6,0,0.9,0c0-0.2,0-0.5-0.1-0.7  c0-0.3-0.1-0.5-0.2-0.7c-0.1-0.2-0.3-0.4-0.5-0.6c-0.2-0.2-0.5-0.2-0.8-0.2C177.8,30.3,177.5,30.4,177.3,30.5"></path>	<path class="st1" d="M186.2,29.2c0-0.3,0-0.7,0-1c0-0.3,0-0.7,0-1c0-0.3,0-0.6,0-0.8c0.2,0.1,0.4,0.1,0.6,0.1c0.2,0,0.3,0,0.6-0.1  c0,0.2,0,0.5-0.1,0.8c0,0.3,0,0.6,0,1c0,0.3,0,0.7,0,1c0,0.4,0,0.7,0,1v2.4c0,0.3,0,0.6,0,1c0,0.3,0,0.7,0,1c0,0.3,0,0.7,0,1  c0,0.3,0,0.6,0.1,0.8c-0.2,0-0.4,0-0.6,0c-0.2,0-0.4,0-0.6,0c0-0.2,0-0.5,0-0.8c0-0.3,0-0.6,0-1c0-0.3,0-0.7,0-1c0-0.3,0-0.7,0-1  v-2.4C186.2,29.8,186.2,29.5,186.2,29.2"></path>	<path class="st1" d="M190.8,30c0.3-0.1,0.7-0.2,1-0.2c0.3,0,0.6,0,0.9,0.1c0.3,0.1,0.5,0.2,0.7,0.4c0.2,0.2,0.3,0.4,0.4,0.6  c0.1,0.2,0.1,0.5,0.1,0.8c0,0.5,0,1,0,1.5c0,0.5,0,1,0,1.6v0.3c0,0.1,0,0.2,0.1,0.3c0,0.1,0.1,0.2,0.1,0.2c0.1,0.1,0.2,0.1,0.3,0.1  c0,0,0.1,0,0.1,0c0,0,0.1,0,0.1,0v0.3c-0.1,0-0.2,0.1-0.4,0.1c-0.2,0-0.3,0-0.5,0c-0.3,0-0.5-0.1-0.7-0.2c-0.2-0.1-0.2-0.3-0.3-0.6  c-0.3,0.3-0.6,0.5-0.9,0.7c-0.3,0.1-0.7,0.2-1.1,0.2c-0.2,0-0.4,0-0.6-0.1c-0.2-0.1-0.4-0.2-0.6-0.3c-0.2-0.1-0.3-0.3-0.4-0.5  c-0.1-0.2-0.2-0.4-0.2-0.7c0-0.5,0.2-0.9,0.5-1.2c0.3-0.3,0.8-0.5,1.4-0.6c0.5-0.1,0.9-0.2,1.1-0.2c0.3-0.1,0.5-0.1,0.6-0.2  c0.1-0.1,0.2-0.1,0.2-0.2c0-0.1,0-0.2,0-0.3c0-0.2,0-0.4-0.1-0.6c-0.1-0.2-0.1-0.4-0.2-0.5c-0.1-0.2-0.3-0.3-0.5-0.4  c-0.2-0.1-0.4-0.1-0.7-0.1c-0.3,0-0.7,0.1-1,0.2c-0.3,0.2-0.5,0.4-0.7,0.7h-0.1v-0.7C190.1,30.3,190.5,30.1,190.8,30 M192.4,33.1  c-0.2,0-0.4,0.1-0.6,0.1c-0.2,0-0.4,0.1-0.6,0.1c-0.2,0.1-0.4,0.1-0.5,0.3c-0.2,0.1-0.3,0.2-0.4,0.4c-0.1,0.2-0.1,0.4-0.1,0.6  c0,0.4,0.1,0.7,0.4,0.9c0.2,0.2,0.5,0.3,0.8,0.3c0.3,0,0.6-0.1,0.9-0.3c0.3-0.2,0.5-0.4,0.6-0.6l0-2  C192.8,33,192.6,33.1,192.4,33.1"></path>	<rect x="15.2" y="65.9" class="st1" width="0.6" height="5.9"></rect>	<polygon class="st1" points="17.1,65.9 17.9,65.9 20.9,71 20.9,71 20.9,65.9 21.5,65.9 21.5,71.8 20.7,71.8 17.7,66.7 17.7,66.7   17.7,71.8 17.1,71.8  "></polygon>	<polygon class="st1" points="25.1,71.8 24.5,71.8 22.2,65.9 22.9,65.9 24.8,71.2 26.8,65.9 27.4,65.9  "></polygon>	<polygon class="st1" points="28.2,65.9 31.1,65.9 31.1,66.4 28.8,66.4 28.8,68.5 31,68.5 31,69 28.8,69 28.8,71.3 31.2,71.3   31.2,71.8 28.2,71.8  "></polygon>	<path class="st1" d="M33.6,71.4c0.4,0,0.7-0.1,1-0.3c0.3-0.2,0.4-0.5,0.4-0.9c0-0.3-0.2-0.5-0.4-0.7c-0.1-0.1-0.3-0.2-0.4-0.3  c-0.2-0.1-0.3-0.2-0.5-0.3c-0.2-0.1-0.3-0.2-0.5-0.3c-0.2-0.1-0.3-0.2-0.5-0.3c-0.3-0.2-0.4-0.6-0.4-0.9c0-0.5,0.2-0.9,0.6-1.1  c0.4-0.3,0.8-0.4,1.3-0.4c0.1,0,0.3,0,0.6,0c0.2,0,0.4,0.1,0.6,0.2l-0.1,0.5c-0.3-0.1-0.7-0.2-1.1-0.2c-0.2,0-0.3,0-0.5,0  c-0.1,0-0.3,0.1-0.4,0.2c-0.1,0.1-0.2,0.2-0.3,0.3c-0.1,0.1-0.1,0.3-0.1,0.5c0,0.1,0,0.3,0.1,0.4c0.1,0.1,0.2,0.2,0.3,0.3  c0.1,0.1,0.3,0.2,0.4,0.3c0.2,0.1,0.3,0.2,0.5,0.3c0.4,0.2,0.7,0.4,0.9,0.6c0.1,0.1,0.2,0.3,0.3,0.4c0.1,0.2,0.1,0.4,0.1,0.6  c0,0.6-0.2,1-0.6,1.3c-0.4,0.3-0.8,0.4-1.3,0.4c-0.6,0-1-0.1-1.4-0.3l0.1-0.6C32.6,71.2,33.1,71.4,33.6,71.4"></path>	<polygon class="st1" points="37.9,66.4 36.1,66.4 36.1,65.9 40.2,65.9 40.2,66.4 38.5,66.4 38.5,71.8 37.9,71.8  "></polygon>	<rect x="41" y="65.9" class="st1" width="0.6" height="5.9"></rect>	<path class="st1" d="M47,69.1h-1.4v-0.5h2v2.9c-0.6,0.2-1.2,0.4-1.9,0.4c-1,0-1.7-0.3-2.2-0.8c-0.5-0.5-0.8-1.3-0.8-2.2  c0-0.9,0.3-1.6,0.8-2.2c0.5-0.5,1.3-0.8,2.2-0.8c0.2,0,0.5,0,0.8,0.1c0.3,0,0.6,0.1,0.8,0.2l-0.1,0.5c-0.2-0.1-0.5-0.2-0.7-0.3  c-0.3,0-0.5,0-0.8,0c-0.8,0-1.4,0.2-1.8,0.7c-0.4,0.5-0.6,1.1-0.6,1.8c0,0.8,0.2,1.4,0.6,1.8c0.4,0.5,1,0.7,1.8,0.7  c0.2,0,0.4,0,0.7-0.1c0.3,0,0.4-0.1,0.6-0.2V69.1z"></path>	<path class="st1" d="M51,65.9h0.7l2.4,5.9h-0.6l-0.6-1.6h-3l-0.6,1.6h-0.6L51,65.9z M50,69.7h2.6l-1.3-3.3L50,69.7z"></path>	<path class="st1" d="M58.3,66.3c-0.3,0-0.5,0-0.7,0c-0.8,0-1.4,0.2-1.8,0.7c-0.4,0.5-0.6,1.1-0.6,1.8c0,0.8,0.2,1.4,0.6,1.8  c0.4,0.5,1,0.7,1.8,0.7c0.2,0,0.4,0,0.7-0.1c0.2,0,0.5-0.1,0.6-0.2l0,0.5c-0.2,0.1-0.4,0.2-0.7,0.2c-0.3,0-0.5,0.1-0.7,0.1  c-1,0-1.7-0.3-2.2-0.8c-0.5-0.5-0.8-1.3-0.8-2.2c0-0.9,0.3-1.6,0.8-2.2c0.5-0.5,1.3-0.8,2.2-0.8c0.2,0,0.4,0,0.7,0  c0.3,0,0.5,0.1,0.7,0.2l0,0.5C58.8,66.4,58.6,66.3,58.3,66.3"></path>	<rect x="60.5" y="65.9" class="st1" width="0.6" height="5.9"></rect>	<path class="st1" d="M62.9,66.7c0.4-0.6,1.1-0.9,2-0.9c0.9,0,1.6,0.3,2,0.9c0.4,0.6,0.6,1.3,0.6,2.1c0,0.9-0.2,1.7-0.7,2.2  c-0.4,0.6-1.1,0.9-2,0.9c-0.9,0-1.5-0.3-1.9-0.9c-0.4-0.5-0.7-1.3-0.7-2.2C62.2,68,62.4,67.3,62.9,66.7 M63.3,67.1  c-0.3,0.5-0.5,1.1-0.5,1.7c0,0.7,0.2,1.2,0.5,1.7c0.3,0.5,0.9,0.8,1.5,0.8c0.7,0,1.2-0.3,1.6-0.8c0.3-0.5,0.5-1.1,0.5-1.7  c0-0.7-0.2-1.2-0.5-1.7c-0.3-0.5-0.8-0.8-1.6-0.8C64.2,66.3,63.6,66.5,63.3,67.1 M65.2,64.4h0.7l-1.1,1.2h-0.4L65.2,64.4z"></path>	<polygon class="st1" points="68.6,65.9 69.4,65.9 72.4,71 72.4,71 72.4,65.9 73,65.9 73,71.8 72.2,71.8 69.2,66.7 69.2,66.7   69.2,71.8 68.6,71.8  "></polygon>	<path class="st1" d="M76.9,68c0.2-0.2,0.5-0.3,0.8-0.3c0.3,0,0.6,0.1,0.8,0.3c0.2,0.2,0.3,0.5,0.3,0.8c0,0.3-0.1,0.6-0.3,0.8  c-0.2,0.2-0.5,0.3-0.8,0.3c-0.3,0-0.6-0.1-0.8-0.3c-0.2-0.2-0.3-0.5-0.3-0.8C76.6,68.5,76.7,68.2,76.9,68"></path>	<path class="st1" d="M85.9,66.3c-0.3,0-0.5,0-0.7,0c-0.8,0-1.4,0.2-1.8,0.7c-0.4,0.5-0.6,1.1-0.6,1.8c0,0.8,0.2,1.4,0.6,1.8  c0.4,0.5,1,0.7,1.8,0.7c0.2,0,0.4,0,0.7-0.1c0.2,0,0.5-0.1,0.6-0.2l0,0.5c-0.2,0.1-0.4,0.2-0.7,0.2c-0.3,0-0.5,0.1-0.7,0.1  c-1,0-1.7-0.3-2.2-0.8c-0.5-0.5-0.8-1.3-0.8-2.2c0-0.9,0.3-1.6,0.8-2.2c0.5-0.5,1.3-0.8,2.2-0.8c0.2,0,0.4,0,0.7,0  c0.3,0,0.5,0.1,0.7,0.2l0,0.5C86.3,66.4,86.1,66.3,85.9,66.3"></path>	<path class="st1" d="M89.9,65.9h0.7l2.4,5.9h-0.6l-0.7-1.6h-3l-0.6,1.6h-0.6L89.9,65.9z M88.9,69.7h2.6l-1.3-3.3L88.9,69.7z"></path>	<path class="st1" d="M93.8,65.9h1.5c1.2,0,1.8,0.6,1.9,1.7c0,0.5-0.2,1-0.5,1.2c-0.4,0.3-0.8,0.4-1.4,0.4h-0.8v2.6h-0.6V65.9z   M94.4,68.7h0.4c0.2,0,0.4,0,0.7,0c0.2,0,0.4-0.1,0.6-0.1c0.2-0.1,0.3-0.2,0.4-0.4c0.1-0.2,0.1-0.4,0.1-0.6c0-0.8-0.4-1.2-1.2-1.2  h-1V68.7z"></path>	<path class="st1" d="M100,65.9h0.7l2.4,5.9h-0.6l-0.6-1.6h-3l-0.6,1.6h-0.6L100,65.9z M99,69.7h2.6l-1.3-3.3L99,69.7z"></path>	<path class="st1" d="M107.3,66.3c-0.3,0-0.5,0-0.7,0c-0.8,0-1.4,0.2-1.8,0.7c-0.4,0.5-0.6,1.1-0.6,1.8c0,0.8,0.2,1.4,0.6,1.8  c0.4,0.5,1,0.7,1.8,0.7c0.2,0,0.4,0,0.7-0.1c0.3,0,0.5-0.1,0.6-0.2l0,0.5c-0.2,0.1-0.4,0.2-0.7,0.2c-0.3,0-0.5,0.1-0.7,0.1  c-1,0-1.7-0.3-2.2-0.8c-0.5-0.5-0.8-1.3-0.8-2.2c0-0.9,0.3-1.6,0.8-2.2c0.5-0.5,1.3-0.8,2.2-0.8c0.2,0,0.4,0,0.7,0  c0.3,0,0.5,0.1,0.7,0.2l0,0.5C107.8,66.4,107.6,66.3,107.3,66.3"></path>	<rect x="109.5" y="65.9" class="st1" width="0.6" height="5.9"></rect>	<polygon class="st1" points="112.6,66.4 110.8,66.4 110.8,65.9 115,65.9 115,66.4 113.2,66.4 113.2,71.8 112.6,71.8  "></polygon>	<path class="st1" d="M117.6,65.9h0.7l2.4,5.9H120l-0.6-1.6h-3l-0.6,1.6h-0.6L117.6,65.9z M116.6,69.7h2.6l-1.3-3.3L116.6,69.7z"></path>	<path class="st1" d="M125,66.3c-0.2,0-0.5,0-0.7,0c-0.8,0-1.4,0.2-1.8,0.7c-0.4,0.5-0.6,1.1-0.6,1.8c0,0.8,0.2,1.4,0.6,1.8  c0.4,0.5,1,0.7,1.8,0.7c0.2,0,0.4,0,0.7-0.1c0.3,0,0.5-0.1,0.6-0.2l0,0.5c-0.2,0.1-0.4,0.2-0.7,0.2c-0.3,0-0.5,0.1-0.7,0.1  c-0.9,0-1.7-0.3-2.2-0.8c-0.5-0.5-0.8-1.3-0.8-2.2c0-0.9,0.3-1.6,0.8-2.2c0.5-0.5,1.3-0.8,2.2-0.8c0.2,0,0.4,0,0.7,0  c0.3,0,0.5,0.1,0.7,0.2l0,0.5C125.4,66.4,125.2,66.3,125,66.3"></path>	<rect x="127.1" y="65.9" class="st1" width="0.6" height="5.9"></rect>	<path class="st1" d="M129.5,66.7c0.4-0.6,1.1-0.9,2-0.9c0.9,0,1.6,0.3,2,0.9c0.4,0.6,0.6,1.3,0.6,2.1c0,0.9-0.2,1.7-0.7,2.2  c-0.4,0.6-1.1,0.9-2,0.9c-0.9,0-1.5-0.3-2-0.9c-0.5-0.5-0.7-1.3-0.7-2.2C128.9,68,129.1,67.3,129.5,66.7 M130,67.1  c-0.3,0.5-0.5,1.1-0.5,1.7c0,0.7,0.2,1.2,0.5,1.7c0.3,0.5,0.8,0.8,1.5,0.8c0.7,0,1.2-0.3,1.6-0.8c0.3-0.5,0.5-1.1,0.5-1.7  c0-0.7-0.2-1.2-0.5-1.7c-0.3-0.5-0.9-0.8-1.6-0.8C130.8,66.3,130.3,66.5,130,67.1 M131.9,64.4h0.7l-1.1,1.2h-0.4L131.9,64.4z"></path>	<polygon class="st1" points="135.3,65.9 136,65.9 139.1,71 139.1,71 139.1,65.9 139.7,65.9 139.7,71.8 138.9,71.8 135.9,66.7   135.9,66.7 135.9,71.8 135.3,71.8  "></polygon>	<path class="st1" d="M143.5,68c0.2-0.2,0.5-0.3,0.8-0.3c0.3,0,0.6,0.1,0.8,0.3c0.2,0.2,0.3,0.5,0.3,0.8c0,0.3-0.1,0.6-0.3,0.8  c-0.2,0.2-0.5,0.3-0.8,0.3c-0.3,0-0.6-0.1-0.8-0.3c-0.2-0.2-0.3-0.5-0.3-0.8C143.2,68.5,143.3,68.2,143.5,68"></path>	<path class="st1" d="M149,65.9h1.5c1.2,0,1.8,0.6,1.9,1.7c0,0.5-0.2,1-0.5,1.2c-0.4,0.3-0.8,0.4-1.4,0.4h-0.8v2.6H149V65.9z   M149.6,68.7h0.4c0.2,0,0.4,0,0.6,0c0.2,0,0.4-0.1,0.6-0.1c0.2-0.1,0.3-0.2,0.4-0.4c0.1-0.2,0.1-0.4,0.1-0.6c0-0.8-0.4-1.2-1.2-1.2  h-1V68.7z"></path>	<path class="st1" d="M153.3,65.9h1.5c1.1,0,1.7,0.5,1.8,1.5c0,0.4-0.1,0.7-0.4,0.9c-0.2,0.2-0.6,0.4-0.9,0.4v0  c0.2,0,0.4,0.1,0.5,0.2c0.1,0.1,0.1,0.1,0.1,0.2c0,0.1,0.1,0.2,0.1,0.3l1,2.3h-0.6l-0.9-2c-0.2-0.4-0.3-0.6-0.5-0.7  c-0.1,0-0.2-0.1-0.3-0.1c-0.1,0-0.2,0-0.4,0h-0.5v2.8h-0.6V65.9z M153.9,68.5h0.6c0.4,0,0.7-0.1,1-0.2c0.3-0.2,0.5-0.5,0.5-0.9  c0-0.2,0-0.4-0.1-0.6c-0.1-0.1-0.2-0.2-0.3-0.3c-0.1-0.1-0.3-0.1-0.5-0.1c-0.2,0-0.4,0-0.6,0h-0.6V68.5z"></path>	<path class="st1" d="M158.4,66.7c0.4-0.6,1.1-0.9,2-0.9c0.9,0,1.6,0.3,2,0.9c0.4,0.6,0.6,1.3,0.6,2.1c0,0.9-0.2,1.7-0.7,2.2  c-0.4,0.6-1.1,0.9-2,0.9c-0.9,0-1.5-0.3-1.9-0.9c-0.4-0.5-0.7-1.3-0.7-2.2C157.8,68,158,67.3,158.4,66.7 M158.9,67.1  c-0.3,0.5-0.5,1.1-0.5,1.7c0,0.7,0.2,1.2,0.5,1.7c0.3,0.5,0.8,0.8,1.5,0.8c0.7,0,1.2-0.3,1.6-0.8c0.3-0.5,0.5-1.1,0.5-1.7  c0-0.7-0.2-1.2-0.5-1.7c-0.3-0.5-0.9-0.8-1.6-0.8C159.7,66.3,159.2,66.5,158.9,67.1"></path>	<polygon class="st1" points="164.3,65.9 165.2,65.9 167.4,71 169.6,65.9 170.4,65.9 170.4,71.8 169.8,71.8 169.8,66.4 169.8,66.4   167.6,71.8 167.1,71.8 164.9,66.4 164.9,66.4 164.9,71.8 164.3,71.8  "></polygon>	<path class="st1" d="M172.3,66.7c0.4-0.6,1.1-0.9,2-0.9c0.9,0,1.6,0.3,2,0.9c0.4,0.6,0.6,1.3,0.6,2.1c0,0.9-0.2,1.7-0.7,2.2  c-0.4,0.6-1.1,0.9-2,0.9c-0.9,0-1.5-0.3-1.9-0.9c-0.5-0.5-0.7-1.3-0.7-2.2C171.6,68,171.8,67.3,172.3,66.7 M172.7,67.1  c-0.3,0.5-0.5,1.1-0.5,1.7c0,0.7,0.2,1.2,0.5,1.7c0.3,0.5,0.8,0.8,1.5,0.8c0.7,0,1.2-0.3,1.6-0.8c0.3-0.5,0.5-1.1,0.5-1.7  c0-0.7-0.2-1.2-0.5-1.7c-0.3-0.5-0.9-0.8-1.6-0.8C173.6,66.3,173.1,66.5,172.7,67.1"></path>	<path class="st1" d="M181.6,66.3c-0.2,0-0.5,0-0.7,0c-0.8,0-1.4,0.2-1.8,0.7c-0.4,0.5-0.6,1.1-0.6,1.8c0,0.8,0.2,1.4,0.6,1.8  c0.4,0.5,1,0.7,1.8,0.7c0.2,0,0.4,0,0.7-0.1c0.3,0,0.5-0.1,0.6-0.2l0,0.5c-0.2,0.1-0.4,0.2-0.7,0.2c-0.3,0-0.5,0.1-0.7,0.1  c-1,0-1.7-0.3-2.2-0.8c-0.5-0.5-0.8-1.3-0.8-2.2c0-0.9,0.3-1.6,0.8-2.2c0.5-0.5,1.3-0.8,2.2-0.8c0.2,0,0.4,0,0.7,0  c0.3,0,0.5,0.1,0.7,0.2l0,0.5C182,66.4,181.8,66.3,181.6,66.3"></path>	<rect x="183.7" y="65.9" class="st1" width="0.6" height="5.9"></rect>	<path class="st1" d="M186.1,66.7c0.4-0.6,1.1-0.9,2-0.9c0.9,0,1.6,0.3,2,0.9c0.4,0.6,0.6,1.3,0.6,2.1c0,0.9-0.2,1.7-0.7,2.2  c-0.5,0.6-1.1,0.9-2,0.9c-0.9,0-1.5-0.3-1.9-0.9c-0.4-0.5-0.7-1.3-0.7-2.2C185.5,68,185.7,67.3,186.1,66.7 M186.6,67.1  c-0.3,0.5-0.5,1.1-0.5,1.7c0,0.7,0.2,1.2,0.5,1.7c0.3,0.5,0.8,0.8,1.5,0.8c0.7,0,1.2-0.3,1.6-0.8c0.3-0.5,0.5-1.1,0.5-1.7  c0-0.7-0.2-1.2-0.5-1.7c-0.3-0.5-0.9-0.8-1.6-0.8C187.4,66.3,186.9,66.5,186.6,67.1 M188.4,64.4h0.7l-1.1,1.2h-0.4L188.4,64.4z"></path>	<polygon class="st1" points="191.8,65.9 192.6,65.9 195.6,71 195.7,71 195.7,65.9 196.3,65.9 196.3,71.8 195.5,71.8 192.5,66.7   192.4,66.7 192.4,71.8 191.8,71.8  "></polygon></g></svg>