<svg xmlns="http://www.w3.org/2000/svg" xmlns:xlink="http://www.w3.org/1999/xlink" id="Layer_1" x="0px" y="0px" viewBox="0 0 210 90" style="enable-background:new 0 0 210 90;" xml:space="preserve"><style type="text/css">	.st0{fill:#EDEDED;}	.st1{fill:#D5D5D5;}	.st2{fill:#D3EDFF;}	.st3{fill:none;stroke:#FFFFFF;stroke-miterlimit:10;}	.st4{fill:#153E5C;}	.st5{clip-path:url(#SVGID_4_);}	.st6{clip-path:url(#SVGID_8_);fill:url(#SVGID_9_);}	.st7{clip-path:url(#SVGID_11_);}	.st8{clip-path:url(#SVGID_15_);fill:url(#SVGID_16_);}	.st9{fill:#B2B2B2;}	.st10{clip-path:url(#SVGID_18_);fill:#B2B2B2;}	.st11{fill:none;stroke:#153E5C;stroke-width:0.171;stroke-miterlimit:10;}	.st12{fill:none;}	.st13{clip-path:url(#SVGID_20_);}	.st14{clip-path:url(#SVGID_24_);fill:url(#SVGID_25_);}	.st15{clip-path:url(#SVGID_27_);fill:#B2B2B2;}	.st16{clip-path:url(#SVGID_29_);}	.st17{clip-path:url(#SVGID_33_);fill:url(#SVGID_34_);}	.st18{clip-path:url(#SVGID_36_);fill:#B2B2B2;}	.st19{fill:none;stroke:#FFFFFF;stroke-width:0.5;stroke-miterlimit:10;}	.st20{fill:#FFFFFF;}	.st21{fill:none;stroke:#EADEFF;stroke-width:0.108;stroke-miterlimit:10;}	.st22{fill:#FFFFFF;stroke:#CECECE;stroke-width:0.25;stroke-miterlimit:10;}	.st23{fill:#124891;}	.st24{clip-path:url(#SVGID_38_);}	.st25{opacity:0.4;clip-path:url(#SVGID_44_);}	.st26{clip-path:url(#SVGID_46_);fill:#FFFFFF;}	.st27{clip-path:url(#SVGID_44_);fill:#009CDA;}	.st28{clip-path:url(#SVGID_44_);fill:#E73331;}	.st29{clip-path:url(#SVGID_44_);fill:#FDC300;}	.st30{clip-path:url(#SVGID_44_);fill:#2B2423;}	.st31{clip-path:url(#SVGID_44_);fill:#2D5EA0;}	.st32{clip-path:url(#SVGID_44_);fill:#EEC221;}	.st33{clip-path:url(#SVGID_44_);fill:#C62632;}	.st34{clip-path:url(#SVGID_44_);}	.st35{clip-path:url(#SVGID_44_);fill:#FFFFFF;}	.st36{clip-path:url(#SVGID_44_);fill:#B2B2B2;}	.st37{clip-path:url(#SVGID_44_);fill:#69C1FF;}	.st38{clip-path:url(#SVGID_44_);fill:none;stroke:#FFFFFF;stroke-width:2;stroke-miterlimit:10;}	.st39{clip-path:url(#SVGID_44_);fill:none;stroke:#FFFFFF;stroke-width:2;stroke-linecap:round;stroke-miterlimit:10;}	.st40{fill:#001689;}	.st41{fill:#F3C300;}	.st42{fill:#E1251B;}</style><g>	<path class="st40" d="M131.5,9.2c-4.2,0.2-7.8,2.7-9.6,6.3l-9.5,19h0l-0.6,1.3c-1.9,3.8-5.8,6.3-10.2,6.3  c-6.3,0-11.4-5.1-11.4-11.5c0-6.3,5.1-11.5,11.4-11.5c4.1,0,7.7,2.1,9.7,5.4l4.8-9.7c-3.8-3.5-8.8-5.6-14.3-5.7c-2,0.1-4,0.5-5.8,1  c-4.9,1.6-9.2,4.8-12,9c-2.3,3.4-3.7,7.4-3.9,11.7c0.2,11.7,9.7,21.2,21.4,21.2c8.3,0,15.4-4.7,19-11.5l0.7-1.4l7-13.9  c0-0.1,0.1-0.1,0.1-0.2c1.2-2.1,3-3.8,5.1-4.8c1.4-0.6,2.9-1,4.5-1.1h15c5.5,0,10-4.5,10-10L131.5,9.2z"></path>	<path class="st40" d="M87.5,9.1h-7.4H54.3l-13.9,0c0,5.5,4.5,10,10,10h3.5h4.5c0.9,0,1.7,0.8,1.7,1.7c0,0.3-0.1,0.5-0.2,0.7  L44.7,52.1h11.2l15.6-31.2v0c0,0,0,0,0,0c0.5-1,1.6-1.8,2.9-1.8H79c0.5-1.1,1.1-2.1,1.8-3.1C82.6,13.4,84.9,11.1,87.5,9.1z"></path>	<g>		<path class="st40" d="M133.4,27.2l-4.2,8.5h15.5c5.5,0,10-4.5,10-10H135C134.4,26,133.8,26.6,133.4,27.2z"></path>		<path class="st40" d="M125.3,43.1c-1.9,3.6-4.5,6.6-7.6,9h3.2h15.5c5.5,0,10-4.5,10-10h-20.5c0,0-0.1,0.2-0.4,0.6L125.3,43.1   L125.3,43.1z"></path>	</g>	<g>		<path class="st40" d="M42.2,70.7h-1.9v-1.3h5.2v1.3h-1.9v5h-1.4V70.7z"></path>		<path class="st40" d="M46.7,69.5h2.8c0.8,0,1.4,0.2,1.8,0.6c0.3,0.4,0.5,0.8,0.5,1.4v0c0,1-0.5,1.6-1.3,1.9l1.5,2.2h-1.6l-1.3-2   h-1.1v2h-1.4V69.5z M49.5,72.5c0.7,0,1-0.4,1-0.9v0c0-0.6-0.4-0.9-1.1-0.9h-1.4v1.8H49.5z"></path>		<path class="st40" d="M53.3,69.5h1.4v6.2h-1.4V69.5z"></path>		<path class="st40" d="M56.4,69.5h2.9c0.7,0,1.3,0.2,1.6,0.5c0.3,0.3,0.4,0.6,0.4,1.1v0c0,0.7-0.4,1.1-0.8,1.3   c0.7,0.3,1.2,0.7,1.2,1.5v0c0,1.1-0.9,1.7-2.3,1.7h-3V69.5z M59,72c0.6,0,1-0.2,1-0.7v0c0-0.4-0.3-0.6-0.9-0.6h-1.4V72H59z    M59.4,74.5c0.6,0,1-0.2,1-0.7v0c0-0.4-0.3-0.7-1-0.7h-1.6v1.4H59.4z"></path>		<path class="st40" d="M62.9,73v-3.6h1.4V73c0,1,0.5,1.5,1.3,1.5c0.8,0,1.3-0.5,1.3-1.5v-3.6h1.4V73c0,1.9-1.1,2.8-2.7,2.8   C63.9,75.8,62.9,74.9,62.9,73z"></path>		<path class="st40" d="M69.9,69.5h1.3l2.9,3.8v-3.8h1.3v6.2h-1.2l-3-4v4h-1.4V69.5z"></path>		<path class="st40" d="M79.2,69.4h1.3l2.7,6.3h-1.4l-0.6-1.4h-2.6l-0.6,1.4h-1.4L79.2,69.4z M80.6,73.1l-0.8-2l-0.8,2H80.6z"></path>		<path class="st40" d="M84.2,69.5h1.4v5h3.1v1.2h-4.5V69.5z"></path>	</g>	<g>		<path class="st40" d="M92.4,72.6L92.4,72.6c0-1.8,1.3-3.2,3.2-3.2c1.2,0,1.9,0.4,2.5,1l-0.9,1c-0.5-0.4-1-0.7-1.6-0.7   c-1.1,0-1.8,0.9-1.8,1.9v0c0,1.1,0.7,2,1.8,2c0.7,0,1.1-0.3,1.6-0.7l0.9,0.9c-0.6,0.7-1.4,1.1-2.6,1.1   C93.7,75.8,92.4,74.4,92.4,72.6z"></path>		<path class="st40" d="M98.9,72.6L98.9,72.6c0-1.8,1.4-3.2,3.3-3.2c1.9,0,3.3,1.4,3.3,3.2v0c0,1.8-1.4,3.2-3.3,3.2   C100.3,75.8,98.9,74.4,98.9,72.6z M104.1,72.6L104.1,72.6c0-1.1-0.8-2-1.9-2c-1.1,0-1.9,0.9-1.9,1.9v0c0,1.1,0.8,2,1.9,2   C103.3,74.5,104.1,73.7,104.1,72.6z"></path>		<path class="st40" d="M106.9,69.5h1.3l2.9,3.8v-3.8h1.4v6.2h-1.2l-3-4v4h-1.4V69.5z"></path>		<path class="st40" d="M115.5,70.7h-1.9v-1.3h5.2v1.3h-1.9v5h-1.4V70.7z"></path>		<path class="st40" d="M120,69.5h4.7v1.2h-3.3V72h2.9v1.2h-2.9v1.3h3.4v1.2H120V69.5z"></path>		<path class="st40" d="M126.1,69.5h1.3l2.9,3.8v-3.8h1.3v6.2h-1.2l-3-4v4h-1.3V69.5z"></path>		<path class="st40" d="M133,72.6L133,72.6c0-1.8,1.3-3.2,3.2-3.2c1.2,0,1.9,0.4,2.4,1l-0.9,1c-0.5-0.4-1-0.7-1.6-0.7   c-1.1,0-1.8,0.9-1.8,1.9v0c0,1.1,0.7,2,1.8,2c0.7,0,1.1-0.3,1.6-0.7l0.9,0.9c-0.6,0.7-1.4,1.1-2.6,1.1   C134.3,75.8,133,74.4,133,72.6z"></path>		<path class="st40" d="M140,69.5h1.4v6.2H140V69.5z"></path>		<path class="st40" d="M142.8,72.6L142.8,72.6c0-1.8,1.4-3.2,3.3-3.2c1.9,0,3.3,1.4,3.3,3.2v0c0,1.8-1.4,3.2-3.3,3.2   C144.2,75.8,142.8,74.4,142.8,72.6z M148,72.6L148,72.6c0-1.1-0.8-2-1.9-2c-1.1,0-1.9,0.9-1.9,1.9v0c0,1.1,0.8,2,1.9,2   C147.2,74.5,148,73.7,148,72.6z"></path>		<path class="st40" d="M150.3,74.8l0.8-1c0.6,0.5,1.1,0.8,1.9,0.8c0.6,0,0.9-0.2,0.9-0.6v0c0-0.3-0.2-0.5-1.3-0.8   c-1.3-0.3-2.1-0.7-2.1-1.9v0c0-1.1,0.9-1.9,2.2-1.9c0.9,0,1.7,0.3,2.3,0.8l-0.7,1c-0.5-0.4-1.1-0.6-1.6-0.6   c-0.5,0-0.8,0.2-0.8,0.5v0c0,0.4,0.3,0.5,1.3,0.8c1.3,0.3,2,0.8,2,1.9v0c0,1.2-0.9,1.9-2.3,1.9C152,75.8,151.1,75.5,150.3,74.8z"></path>		<path class="st40" d="M156.3,72.6L156.3,72.6c0-1.8,1.4-3.2,3.3-3.2c1.9,0,3.3,1.4,3.3,3.2v0c0,1.8-1.4,3.2-3.3,3.2   C157.7,75.8,156.3,74.4,156.3,72.6z M161.5,72.6L161.5,72.6c0-1.1-0.8-2-1.9-2c-1.1,0-1.9,0.9-1.9,1.9v0c0,1.1,0.8,2,1.9,2   C160.7,74.5,161.5,73.7,161.5,72.6z"></path>	</g>	<g>		<path class="st40" d="M40.4,78.3H45v1.2h-3.3v1.3h2.9V82h-2.9v1.3h3.4v1.2h-4.7V78.3z"></path>		<path class="st40" d="M46.1,78.3h1.4v5h3.1v1.2h-4.5V78.3z"></path>		<path class="st40" d="M51.4,78.3h4.7v1.2h-3.3v1.3h2.9V82h-2.9v1.3h3.4v1.2h-4.7V78.3z"></path>		<path class="st40" d="M56.9,81.5L56.9,81.5c0-1.8,1.3-3.2,3.2-3.2c1.2,0,1.9,0.4,2.5,1l-0.9,1c-0.5-0.4-1-0.7-1.6-0.7   c-1.1,0-1.8,0.9-1.8,1.9v0c0,1.1,0.7,2,1.8,2c0.7,0,1.1-0.3,1.6-0.7l0.9,0.9c-0.6,0.7-1.3,1.1-2.6,1.1   C58.3,84.7,56.9,83.3,56.9,81.5z"></path>		<path class="st40" d="M65,79.6h-1.9v-1.3h5.2v1.3h-1.9v5H65V79.6z"></path>		<path class="st40" d="M68.6,81.5L68.6,81.5c0-1.8,1.4-3.2,3.3-3.2c1.9,0,3.3,1.4,3.3,3.2v0c0,1.8-1.4,3.2-3.3,3.2   C70,84.7,68.6,83.2,68.6,81.5z M73.8,81.5L73.8,81.5c0-1.1-0.8-2-1.9-2c-1.1,0-1.9,0.9-1.9,1.9v0c0,1.1,0.8,2,1.9,2   C73,83.4,73.8,82.5,73.8,81.5z"></path>		<path class="st40" d="M76.3,78.3h2.8c0.8,0,1.4,0.2,1.8,0.6c0.3,0.3,0.5,0.8,0.5,1.4v0c0,1-0.5,1.6-1.3,1.9l1.5,2.2H80l-1.3-2   h-1.1v2h-1.4V78.3z M79,81.4c0.7,0,1-0.4,1-0.9v0c0-0.6-0.4-0.9-1.1-0.9h-1.4v1.8H79z"></path>		<path class="st40" d="M84.6,78.3h1.3l2.7,6.3h-1.4l-0.6-1.4h-2.6l-0.6,1.4H82L84.6,78.3z M86.1,82l-0.8-2l-0.8,2H86.1z"></path>		<path class="st40" d="M89.4,78.3h1.4v5h3.1v1.2h-4.5V78.3z"></path>	</g>	<g>		<path class="st40" d="M97.8,78.3h2.4c2,0,3.3,1.3,3.3,3.1v0c0,1.8-1.4,3.1-3.3,3.1h-2.4V78.3z M100.2,83.3c1.1,0,1.9-0.8,1.9-1.9   v0c0-1.1-0.8-1.9-1.9-1.9h-1.1v3.8H100.2z"></path>		<path class="st40" d="M104.5,78.3h4.7v1.2h-3.3v1.3h2.9V82h-2.9v1.3h3.4v1.2h-4.7V78.3z"></path>		<path class="st40" d="M110.3,78.3h1.4v5h3.1v1.2h-4.5V78.3z"></path>	</g>	<g>		<path class="st40" d="M118.1,78.3h4.7v1.2h-3.3v1.3h2.9V82h-2.9v1.3h3.4v1.2h-4.7V78.3z"></path>		<path class="st40" d="M123.6,81.5L123.6,81.5c0-1.8,1.3-3.2,3.2-3.2c1.2,0,1.9,0.4,2.4,1l-0.9,1c-0.5-0.4-1-0.7-1.6-0.7   c-1.1,0-1.8,0.9-1.8,1.9v0c0,1.1,0.7,2,1.8,2c0.7,0,1.1-0.3,1.6-0.7l0.9,0.9c-0.6,0.7-1.3,1.1-2.5,1.1   C125,84.7,123.6,83.3,123.6,81.5z"></path>		<path class="st40" d="M130.2,81.9v-3.6h1.4v3.5c0,1,0.5,1.5,1.3,1.5c0.8,0,1.3-0.5,1.3-1.5v-3.6h1.4v3.5c0,1.9-1.1,2.8-2.7,2.8   C131.2,84.7,130.2,83.7,130.2,81.9z"></path>		<path class="st40" d="M138.7,78.3h1.3l2.7,6.3h-1.4l-0.6-1.4H138l-0.6,1.4H136L138.7,78.3z M140.2,82l-0.8-2l-0.8,2H140.2z"></path>		<path class="st40" d="M143.4,78.3h2.4c2,0,3.3,1.3,3.3,3.1v0c0,1.8-1.4,3.1-3.3,3.1h-2.4V78.3z M145.8,83.3c1.1,0,1.9-0.8,1.9-1.9   v0c0-1.1-0.8-1.9-1.9-1.9h-1.1v3.8H145.8z"></path>		<path class="st40" d="M149.9,81.5L149.9,81.5c0-1.8,1.4-3.2,3.3-3.2c1.9,0,3.3,1.4,3.3,3.2v0c0,1.8-1.4,3.2-3.3,3.2   C151.3,84.7,149.9,83.2,149.9,81.5z M155.1,81.5L155.1,81.5c0-1.1-0.8-2-1.9-2c-1.1,0-1.9,0.9-1.9,1.9v0c0,1.1,0.8,2,1.9,2   C154.3,83.4,155.1,82.5,155.1,81.5z"></path>		<path class="st40" d="M157.6,78.3h2.8c0.8,0,1.4,0.2,1.8,0.6c0.3,0.3,0.5,0.8,0.5,1.4v0c0,1-0.5,1.6-1.3,1.9l1.5,2.2h-1.6l-1.3-2   h-1.1v2h-1.4V78.3z M160.3,81.4c0.7,0,1-0.4,1-0.9v0c0-0.6-0.4-0.9-1.1-0.9h-1.4v1.8H160.3z"></path>	</g>	<rect x="40.4" y="58.5" class="st41" width="61.3" height="6.3"></rect>	<rect x="101.6" y="58.5" class="st40" width="30.6" height="6.3"></rect>	<rect x="132.3" y="58.5" class="st42" width="30.6" height="6.3"></rect></g></svg>